<svg width="26" height="23" viewBox="0 0 26 23" fill="none" xmlns="http://www.w3.org/2000/svg">
<path d="M23.93 6.74057V10.195H15.4401C14.5746 10.195 13.8591 10.9106 13.8591 11.776V15.3305C13.8591 16.1959 14.5746 16.9115 15.4401 16.9115H23.93V20.3659C23.93 20.8133 23.5887 21.1546 23.1414 21.1546H2.99951C2.5522 21.1546 2.2109 20.8133 2.2109 20.3659V5.69532C2.53843 5.85773 2.90673 5.95196 3.29572 5.95196H3.2958C7.84709 5.94792 12.7557 5.94939 17.2365 5.95073C19.3241 5.95136 21.3188 5.95196 23.1414 5.95196C23.5887 5.95196 23.93 6.29326 23.93 6.74057ZM15.4399 11.5798H15.4401H23.93V15.5267H15.4401C15.3768 15.5267 15.329 15.505 15.2973 15.4732C15.2656 15.4415 15.2439 15.3937 15.2439 15.3305V11.776C15.2439 11.7128 15.2656 11.6649 15.2973 11.6331C15.3291 11.6013 15.3768 11.5797 15.4399 11.5798ZM15.4401 11.4798H23.93H15.4401ZM3.29572 1.0127C1.93796 1.0127 0.826086 2.12457 0.826086 3.48233V20.3659C0.826086 21.5596 1.80585 22.5394 2.99951 22.5394H23.1414C24.335 22.5394 25.3148 21.5596 25.3148 20.3659V6.74057C25.3148 5.54691 24.335 4.56714 23.1414 4.56714H21.7603V1.70511C21.7603 1.33969 21.4334 1.01273 21.0679 1.0127H3.29572ZM3.29572 2.39751H20.3755V4.56714H3.29572C2.68431 4.56714 2.2109 4.09374 2.2109 3.48233C2.2109 2.87092 2.68431 2.39751 3.29572 2.39751ZM18.4021 12.2684C17.6925 12.2684 17.1173 12.8437 17.1173 13.5533C17.1173 14.2629 17.6925 14.8381 18.4021 14.8381C19.1117 14.8381 19.6869 14.2629 19.6869 13.5533C19.6869 12.8437 19.1117 12.2684 18.4021 12.2684Z" fill="#A7A8AB" stroke="#A7A8AB" stroke-width="0.2"/>
</svg>
